<?xml version="1.0" encoding="UTF-8"?>
<svg id="Layer_2" data-name="Layer 2" xmlns="http://www.w3.org/2000/svg" viewBox="0 0 62.53 31.68">
  <defs>
    <style>
      .cls-1 {
        fill: #f2655b;
      }

      .cls-1, .cls-2, .cls-3, .cls-4, .cls-5, .cls-6, .cls-7 {
        stroke-width: 0px;
      }

      .cls-2 {
        fill: #fbaf63;
      }

      .cls-3 {
        fill: #a1c7db;
      }

      .cls-4 {
        fill: #add0e9;
      }

      .cls-5 {
        fill: #3a5493;
      }

      .cls-6 {
        fill: #689669;
      }

      .cls-7 {
        fill: #5d80c0;
      }
    </style>
  </defs>
  <g id="Layer_1-2" data-name="Layer 1">
    <g>
      <path class="cls-1" d="M7.74,22.61s-2.43.33-2.37,1.89c.03.71.4,1.44.82,2.13.32.51,1.08,1.54.49,1.68-1.12.26-3.6.35-4.06-.23-1.27-1.58-1.16-2.86-1.29-4.83,0,0-1.01-.07-1.33-3.27l7.36-1.66.38,4.29Z"/>
      <path class="cls-2" d="M38.03,9.18s-2.43-1.64-6.5.89c-4.07,2.53-25.15,7.97-25.15,7.97l1.07,5.95,30.95-4.74s-1.73-6.89-.38-10.06Z"/>
      <path class="cls-4" d="M50.5,15.15s-.44,6.49-.03,7.31,2.69,8,2.69,8l5.79.06s-.18-1.37-3.95-1.34l-1.46-7.6.99-6-4.04-.43Z"/>
      <path class="cls-7" d="M55.11,16.19s1.63-7.92-1.68-8.1-3.22,7.8-3.22,7.8c0,0,2.49.87,4.9.3Z"/>
      <g>
        <path class="cls-3" d="M61.4,5.18s-.27,1.25.2,2.62c0,0,.2.23-1.52.51l.2.82s-.74.12-1.25,1.02-2.38-.16-2.38-.16l-1.99,2.15s-1.52-.59-.98-5l3.28-2.7,4.45.74Z"/>
        <path class="cls-6" d="M56.8,6.85s-1.02-1.64.35-2.03.98,1.87.98,1.87l.51.12s.08-1.33,1.93-1.52c.28-.03.86.05,1.32-.7.53-.86,1.14-2.62-.08-3.48-2.54-1.79-6.69-1.27-7.59.47-.74,1.43-1.48,4.22.2,6.21,0,0,1.37.7,2.38-.94Z"/>
      </g>
      <path class="cls-5" d="M37.76,9.11s9.05-2.21,11.87-2.99c1.31-.36,4,.73,4,.73,0,0-.2,4.14.58,4.73s1.75-1.09,1.75-1.09c0,0-2.05,6.33-4.49,7.11s-13.15,2.11-14.81,1.91,1.11-10.39,1.11-10.39Z"/>
      <path class="cls-4" d="M45.82,15.02s-.48,7.03-.03,7.92,2.92,8.67,2.92,8.67l6.27.07s-.2-1.48-4.28-1.46l-1.58-8.23,1.07-6.5-4.38-.47Z"/>
      <path class="cls-7" d="M50.82,16.15s1.77-8.58-1.82-8.77-3.48,8.45-3.48,8.45c0,0,2.7.94,5.3.32Z"/>
    </g>
  </g>
</svg>